<svg xmlns="http://www.w3.org/2000/svg" xmlns:xlink="http://www.w3.org/1999/xlink" contentStyleType="text/css" height="652px" preserveAspectRatio="none" style="width:856px;height:652px;background:#FFFFFF;" version="1.1" viewBox="0 0 856 652" width="856px" zoomAndPan="magnify"><defs/><g><ellipse cx="377.38" cy="16" fill="#222222" rx="10" ry="10" style="stroke:#222222;stroke-width:1.0;"/><g id="Step0"><rect fill="#F1F1F1" height="50.2656" rx="12.5" ry="12.5" style="stroke:#181818;stroke-width:0.5;" width="120.6641" x="317.05" y="87"/><line style="stroke:#181818;stroke-width:0.5;" x1="317.05" x2="437.7141" y1="113.2969" y2="113.2969"/><text fill="#000000" font-family="sans-serif" font-size="14" lengthAdjust="spacing" textLength="40.7832" x="356.9904" y="104.9951">Step0</text><text fill="#000000" font-family="sans-serif" font-size="12" lengthAdjust="spacing" textLength="100.6641" x="322.05" y="129.4355">Hoofdschakelaar</text></g><g id="Step1"><rect fill="#F1F1F1" height="50.2656" rx="12.5" ry="12.5" style="stroke:#181818;stroke-width:0.5;" width="153.3242" x="145.72" y="214.27"/><line style="stroke:#181818;stroke-width:0.5;" x1="145.72" x2="299.0442" y1="240.5669" y2="240.5669"/><text fill="#000000" font-family="sans-serif" font-size="14" lengthAdjust="spacing" textLength="40.7832" x="201.9905" y="232.2651">Step1</text><text fill="#000000" font-family="sans-serif" font-size="12" lengthAdjust="spacing" textLength="133.3242" x="150.72" y="256.7055">Plaat in klem plaatsen</text></g><g id="Step2"><rect fill="#F1F1F1" height="50.2656" rx="12.5" ry="12.5" style="stroke:#181818;stroke-width:0.5;" width="115.8711" x="319.44" y="341.53"/><line style="stroke:#181818;stroke-width:0.5;" x1="319.44" x2="435.3111" y1="367.8269" y2="367.8269"/><text fill="#000000" font-family="sans-serif" font-size="14" lengthAdjust="spacing" textLength="40.7832" x="356.9839" y="359.5251">Step2</text><text fill="#000000" font-family="sans-serif" font-size="12" lengthAdjust="spacing" textLength="95.8711" x="324.44" y="383.9655">Boor aan zetten</text></g><g id="Step3"><rect fill="#F1F1F1" height="50.2656" rx="12.5" ry="12.5" style="stroke:#181818;stroke-width:0.5;" width="97.4844" x="496.64" y="468.8"/><line style="stroke:#181818;stroke-width:0.5;" x1="496.64" x2="594.1244" y1="495.0969" y2="495.0969"/><text fill="#000000" font-family="sans-serif" font-size="14" lengthAdjust="spacing" textLength="40.7832" x="524.9906" y="486.7951">Step3</text><text fill="#000000" font-family="sans-serif" font-size="12" lengthAdjust="spacing" textLength="77.4844" x="501.64" y="511.2355">Boor onderin</text></g><g id="Step4"><rect fill="#F1F1F1" height="50.2656" rx="12.5" ry="12.5" style="stroke:#181818;stroke-width:0.5;" width="105.3887" x="578.68" y="596.06"/><line style="stroke:#181818;stroke-width:0.5;" x1="578.68" x2="684.0687" y1="622.3569" y2="622.3569"/><text fill="#000000" font-family="sans-serif" font-size="14" lengthAdjust="spacing" textLength="40.7832" x="610.9827" y="614.0551">Step4</text><text fill="#000000" font-family="sans-serif" font-size="12" lengthAdjust="spacing" textLength="85.3887" x="583.68" y="638.4955">Boor uitzetten</text></g><!--link *start* to Step0--><g id="link_*start*_Step0"><path d="M377.38,26.37 C377.38,40.32 377.38,61.03 377.38,80.75 " fill="none" id="*start*-to-Step0" style="stroke:#181818;stroke-width:1.0;"/><polygon fill="#181818" points="377.38,86.75,381.38,77.75,377.38,81.75,373.38,77.75,377.38,86.75" style="stroke:#181818;stroke-width:1.0;"/></g><!--link Step0 to Step1--><g id="link_Step0_Step1"><path d="M316.87,113.83 C229.65,116.26 75.21,126.39 40.38,167.27 C6,207.61 75.4317,224.504 139.4017,232.084 " fill="none" id="Step0-to-Step1" style="stroke:#181818;stroke-width:1.0;"/><polygon fill="#181818" points="145.36,232.79,136.8932,227.7588,140.3947,232.2017,135.9518,235.7032,145.36,232.79" style="stroke:#181818;stroke-width:1.0;"/><text fill="#000000" font-family="sans-serif" font-size="13" lengthAdjust="spacing" textLength="137.3569" x="41.38" y="180.3369">Hoofdschakelaar aan</text></g><!--link Step1 to Step0--><g id="link_Step1_Step0"><path d="M214.27,213.84 C210.99,199.04 209.89,180.54 219.38,167.27 C241.38,136.48 276.0828,124.0033 310.6328,118.2033 " fill="none" id="Step1-to-Step0" style="stroke:#181818;stroke-width:1.0;"/><polygon fill="#181818" points="316.55,117.21,307.012,114.7552,311.619,118.0378,308.3364,122.6448,316.55,117.21" style="stroke:#181818;stroke-width:1.0;"/><text fill="#000000" font-family="sans-serif" font-size="13" lengthAdjust="spacing" textLength="130.1333" x="220.38" y="180.3369">Hoofdschakelaar uit</text></g><!--link Step1 to Step2--><g id="link_Step1_Step2"><path d="M232.79,264.93 C240.14,279.92 251.19,298.61 265.38,311.53 C280.79,325.56 295.0272,334.2285 313.6072,342.6685 " fill="none" id="Step1-to-Step2" style="stroke:#181818;stroke-width:1.0;"/><polygon fill="#181818" points="319.07,345.15,312.5301,337.7859,314.5177,343.0821,309.2215,345.0696,319.07,345.15" style="stroke:#181818;stroke-width:1.0;"/><text fill="#000000" font-family="sans-serif" font-size="13" lengthAdjust="spacing" textLength="84.3984" x="266.38" y="307.5969">Plaat in klem</text></g><!--link Step2 to Step0--><g id="link_Step2_Step0"><path d="M377.38,341.15 C377.38,292.77 377.38,191.49 377.38,143.35 " fill="none" id="Step2-to-Step0" style="stroke:#181818;stroke-width:1.0;"/><polygon fill="#181818" points="377.38,137.35,373.38,146.35,377.38,142.35,381.38,146.35,377.38,137.35" style="stroke:#181818;stroke-width:1.0;"/><text fill="#000000" font-family="sans-serif" font-size="13" lengthAdjust="spacing" textLength="130.1333" x="378.38" y="243.9669">Hoofdschakelaar uit</text></g><!--link Step2 to Step3--><g id="link_Step2_Step3"><path d="M378.33,392.13 C380.14,407.27 384.81,426.17 396.38,438.8 C422.13,466.91 457.7457,479.2675 490.4157,485.7775 " fill="none" id="Step2-to-Step3" style="stroke:#181818;stroke-width:1.0;"/><polygon fill="#181818" points="496.3,486.95,488.2552,481.2683,491.3964,485.9729,486.6918,489.1141,496.3,486.95" style="stroke:#181818;stroke-width:1.0;"/><text fill="#000000" font-family="sans-serif" font-size="13" lengthAdjust="spacing" textLength="138.4487" x="397.38" y="434.8669">Gat in de plaat boren</text></g><!--link Step3 to Step0--><g id="link_Step3_Step0"><path d="M549.29,468.54 C556.2,417.43 565.62,297.02 517.38,214.27 C497.6,180.33 466.6462,157.5617 436.0162,140.5617 " fill="none" id="Step3-to-Step0" style="stroke:#181818;stroke-width:1.0;"/><polygon fill="#181818" points="430.77,137.65,436.6981,145.515,435.1418,140.0764,440.5803,138.5201,430.77,137.65" style="stroke:#181818;stroke-width:1.0;"/><text fill="#000000" font-family="sans-serif" font-size="13" lengthAdjust="spacing" textLength="130.1333" x="550.41" y="307.5969">Hoofdschakelaar uit</text></g><!--link Step3 to Step4--><g id="link_Step3_Step4"><path d="M538.19,519.49 C535.4,533.93 534.5,552.06 542.38,566.06 C550.53,580.57 559.1179,588.6503 573.4379,596.8803 " fill="none" id="Step3-to-Step4" style="stroke:#181818;stroke-width:1.0;"/><polygon fill="#181818" points="578.64,599.87,572.8301,591.9174,574.3049,597.3786,568.8437,598.8534,578.64,599.87" style="stroke:#181818;stroke-width:1.0;"/><text fill="#000000" font-family="sans-serif" font-size="13" lengthAdjust="spacing" textLength="147.1514" x="543.38" y="562.1269">Boor terug naar boven</text></g><!--link Step4 to Step0--><g id="link_Step4_Step0"><path d="M667.43,595.76 C677.65,587.36 687.99,577.23 695.38,566.06 C713.63,538.46 717.38,528.02 717.38,494.93 C717.38,238.4 717.38,238.4 717.38,238.4 C717.38,179.58 541.8699,140.8857 444.0699,123.7457 " fill="none" id="Step4-to-Step0" style="stroke:#181818;stroke-width:1.0;"/><polygon fill="#181818" points="438.16,122.71,446.3344,128.2036,443.0849,123.5731,447.7154,120.3237,438.16,122.71" style="stroke:#181818;stroke-width:1.0;"/><text fill="#000000" font-family="sans-serif" font-size="13" lengthAdjust="spacing" textLength="130.1333" x="718.38" y="371.2369">Hoofdschakelaar uit</text></g><!--SRC=[ZP2n3e8m48Ptdk9c4n8BJ0uEBZgQC1g78gSIi4VAuU3JswRMLa8YO_j__VhVdLPdIDCjb8pzEaa6bepk01iu45thuNANBNPIQeXYOUAZkMHe5BGTFg2tfm5L16K6sX5fa5B12vb_qjodf6hKJHmLFXeR_hnBN2dVLSpKCxyuJ8IHPZ3Zd53PT1YdoHPf0cK7sZj9ZMuVK97svVD5ka1zby2ennieIrNqzBhYd-uD]--></g></svg>