<svg xmlns="http://www.w3.org/2000/svg" xmlns:xlink="http://www.w3.org/1999/xlink" contentStyleType="text/css" height="779px" preserveAspectRatio="none" style="width:1022px;height:779px;background:#FFFFFF;" version="1.1" viewBox="0 0 1022 779" width="1022px" zoomAndPan="magnify"><defs/><g><ellipse cx="450.37" cy="16" fill="#222222" rx="10" ry="10" style="stroke:#222222;stroke-width:1.0;"/><g id="Step0"><rect fill="#F1F1F1" height="50.2656" rx="12.5" ry="12.5" style="stroke:#181818;stroke-width:0.5;" width="120.6641" x="390.04" y="87"/><line style="stroke:#181818;stroke-width:0.5;" x1="390.04" x2="510.7041" y1="113.2969" y2="113.2969"/><text fill="#000000" font-family="sans-serif" font-size="14" lengthAdjust="spacing" textLength="40.7832" x="429.9804" y="104.9951">Step0</text><text fill="#000000" font-family="sans-serif" font-size="12" lengthAdjust="spacing" textLength="100.6641" x="395.04" y="129.4355">Hoofdschakelaar</text></g><g id="Step1"><rect fill="#F1F1F1" height="50.2656" rx="12.5" ry="12.5" style="stroke:#181818;stroke-width:0.5;" width="189.1426" x="15.8" y="214.26"/><line style="stroke:#181818;stroke-width:0.5;" x1="15.8" x2="204.9426" y1="240.5569" y2="240.5569"/><text fill="#000000" font-family="sans-serif" font-size="14" lengthAdjust="spacing" textLength="40.7832" x="89.9797" y="232.2551">Step1</text><text fill="#000000" font-family="sans-serif" font-size="12" lengthAdjust="spacing" textLength="169.1426" x="20.8" y="256.6955">Plaat in klem en boren klaar</text></g><g id="Step2"><rect fill="#F1F1F1" height="50.2656" rx="12.5" ry="12.5" style="stroke:#181818;stroke-width:0.5;" width="110.3223" x="302.21" y="341.53"/><line style="stroke:#181818;stroke-width:0.5;" x1="302.21" x2="412.5323" y1="367.8269" y2="367.8269"/><text fill="#000000" font-family="sans-serif" font-size="14" lengthAdjust="spacing" textLength="40.7832" x="336.9795" y="359.5251">Step2</text><text fill="#000000" font-family="sans-serif" font-size="12" lengthAdjust="spacing" textLength="90.3223" x="307.21" y="383.9655">Tap aan zetten</text></g><g id="Step3"><rect fill="#F1F1F1" height="50.2656" rx="12.5" ry="12.5" style="stroke:#181818;stroke-width:0.5;" width="91.9355" x="486.41" y="468.79"/><line style="stroke:#181818;stroke-width:0.5;" x1="486.41" x2="578.3455" y1="495.0869" y2="495.0869"/><text fill="#000000" font-family="sans-serif" font-size="14" lengthAdjust="spacing" textLength="40.7832" x="511.9862" y="486.7851">Step3</text><text fill="#000000" font-family="sans-serif" font-size="12" lengthAdjust="spacing" textLength="71.9355" x="491.41" y="511.2255">Tap onderin</text></g><g id="Step4"><rect fill="#F1F1F1" height="50.2656" rx="12.5" ry="12.5" style="stroke:#181818;stroke-width:0.5;" width="99.8398" x="648.45" y="596.06"/><line style="stroke:#181818;stroke-width:0.5;" x1="648.45" x2="748.2898" y1="622.3569" y2="622.3569"/><text fill="#000000" font-family="sans-serif" font-size="14" lengthAdjust="spacing" textLength="40.7832" x="677.9783" y="614.0551">Step4</text><text fill="#000000" font-family="sans-serif" font-size="12" lengthAdjust="spacing" textLength="79.8398" x="653.45" y="638.4955">Tap uitzetten</text></g><g id="Step5"><rect fill="#F1F1F1" height="50.2656" rx="12.5" ry="12.5" style="stroke:#181818;stroke-width:0.5;" width="102.9922" x="738.88" y="723.32"/><line style="stroke:#181818;stroke-width:0.5;" x1="738.88" x2="841.8722" y1="749.6169" y2="749.6169"/><text fill="#000000" font-family="sans-serif" font-size="14" lengthAdjust="spacing" textLength="40.7832" x="769.9845" y="741.3151">Step5</text><text fill="#000000" font-family="sans-serif" font-size="12" lengthAdjust="spacing" textLength="82.9922" x="743.88" y="765.7555">plaat uit klem</text></g><!--link *start* to Step0--><g id="link_*start*_Step0"><path d="M450.37,26.37 C450.37,40.32 450.37,61.02 450.37,80.74 " fill="none" id="*start*-to-Step0" style="stroke:#181818;stroke-width:1.0;"/><polygon fill="#181818" points="450.37,86.74,454.37,77.74,450.37,81.74,446.37,77.74,450.37,86.74" style="stroke:#181818;stroke-width:1.0;"/></g><!--link Step0 to Step1--><g id="link_Step0_Step1"><path d="M389.57,116.41 C277,123.12 45.33,140.09 21.37,167.26 C6,184.69 18.2118,198.2568 41.6318,210.9168 " fill="none" id="Step0-to-Step1" style="stroke:#181818;stroke-width:1.0;"/><polygon fill="#181818" points="46.91,213.77,40.8948,205.9714,42.5115,211.3923,37.0906,213.009,46.91,213.77" style="stroke:#181818;stroke-width:1.0;"/><text fill="#000000" font-family="sans-serif" font-size="13" lengthAdjust="spacing" textLength="137.3569" x="22.37" y="180.3269">Hoofdschakelaar aan</text></g><!--link Step1 to Step0--><g id="link_Step1_Step0"><path d="M135.01,213.78 C152.01,198.18 175.88,178.82 200.37,167.26 C261.11,138.59 331.3946,125.6299 383.6146,119.2299 " fill="none" id="Step1-to-Step0" style="stroke:#181818;stroke-width:1.0;"/><polygon fill="#181818" points="389.57,118.5,380.1502,115.6245,384.6071,119.1082,381.1234,123.5651,389.57,118.5" style="stroke:#181818;stroke-width:1.0;"/><text fill="#000000" font-family="sans-serif" font-size="13" lengthAdjust="spacing" textLength="130.1333" x="201.37" y="180.3269">Hoofdschakelaar uit</text></g><!--link Step1 to Step2--><g id="link_Step1_Step2"><path d="M101.81,265.02 C98.27,280.03 97.05,298.73 107.37,311.53 C131.32,341.21 229.6857,354.875 295.7757,361.015 " fill="none" id="Step1-to-Step2" style="stroke:#181818;stroke-width:1.0;"/><polygon fill="#181818" points="301.75,361.57,293.1586,356.7546,296.7714,361.1075,292.4186,364.7203,301.75,361.57" style="stroke:#181818;stroke-width:1.0;"/><text fill="#000000" font-family="sans-serif" font-size="13" lengthAdjust="spacing" textLength="223.6978" x="108.37" y="307.5969">boren klaar en plaat zit in de klem</text></g><!--link Step2 to Step0--><g id="link_Step2_Step0"><path d="M358.97,341.26 C361.63,310.66 368.45,257.01 385.37,214.26 C396.59,185.93 412.5549,161.8162 427.2949,142.2062 " fill="none" id="Step2-to-Step0" style="stroke:#181818;stroke-width:1.0;"/><polygon fill="#181818" points="430.9,137.41,422.2949,142.2009,427.8958,141.4068,428.6898,147.0077,430.9,137.41" style="stroke:#181818;stroke-width:1.0;"/><text fill="#000000" font-family="sans-serif" font-size="13" lengthAdjust="spacing" textLength="130.1333" x="386.37" y="243.9569">Hoofdschakelaar uit</text></g><!--link Step2 to Step3--><g id="link_Step2_Step3"><path d="M349.18,392 C345.78,406.9 344.59,425.59 354.37,438.79 C384.47,479.41 438.3012,490.2232 480.2612,492.7932 " fill="none" id="Step2-to-Step3" style="stroke:#181818;stroke-width:1.0;"/><polygon fill="#181818" points="486.25,493.16,477.5114,488.6173,481.2594,492.8543,477.0223,496.6023,486.25,493.16" style="stroke:#181818;stroke-width:1.0;"/><text fill="#000000" font-family="sans-serif" font-size="13" lengthAdjust="spacing" textLength="161.1099" x="355.37" y="434.8569">draad in de plaat tappen</text></g><!--link Step3 to Step0--><g id="link_Step3_Step0"><path d="M535.9,468.62 C542.11,419.16 551.67,303.94 521.37,214.26 C511.49,184.99 494.1961,161.1784 477.5161,141.9884 " fill="none" id="Step3-to-Step0" style="stroke:#181818;stroke-width:1.0;"/><polygon fill="#181818" points="473.58,137.46,476.4652,146.8768,476.8601,141.2337,482.5032,141.6286,473.58,137.46" style="stroke:#181818;stroke-width:1.0;"/><text fill="#000000" font-family="sans-serif" font-size="13" lengthAdjust="spacing" textLength="130.1333" x="540.96" y="307.5969">Hoofdschakelaar uit</text></g><!--link Step3 to Step4--><g id="link_Step3_Step4"><path d="M524.17,519.55 C520.85,534.38 519.76,552.88 529.37,566.06 C556.34,603.02 602.9179,614.7322 642.2979,618.5422 " fill="none" id="Step3-to-Step4" style="stroke:#181818;stroke-width:1.0;"/><polygon fill="#181818" points="648.27,619.12,639.697,614.2719,643.2932,618.6385,638.9266,622.2347,648.27,619.12" style="stroke:#181818;stroke-width:1.0;"/><text fill="#000000" font-family="sans-serif" font-size="13" lengthAdjust="spacing" textLength="141.1401" x="530.37" y="562.1269">Tap terug naar boven</text></g><!--link Step4 to Step0--><g id="link_Step4_Step0"><path d="M698.37,595.71 C698.37,570.46 698.37,529.94 698.37,494.93 C698.37,238.39 698.37,238.39 698.37,238.39 C698.37,154.7 590.4132,127.6676 516.9932,118.4476 " fill="none" id="Step4-to-Step0" style="stroke:#181818;stroke-width:1.0;"/><polygon fill="#181818" points="511.04,117.7,519.4715,122.7902,516.001,118.323,520.4683,114.8526,511.04,117.7" style="stroke:#181818;stroke-width:1.0;"/><text fill="#000000" font-family="sans-serif" font-size="13" lengthAdjust="spacing" textLength="130.1333" x="699.37" y="371.2269">Hoofdschakelaar uit</text></g><!--link Step4 to Step5--><g id="link_Step4_Step5"><path d="M704.31,646.76 C708.6,661.22 715.4,679.34 725.37,693.32 C733.3,704.44 739.3831,710.859 749.8531,719.319 " fill="none" id="Step4-to-Step5" style="stroke:#181818;stroke-width:1.0;"/><polygon fill="#181818" points="754.52,723.09,750.0336,714.3223,750.6309,719.9475,745.0057,720.5448,754.52,723.09" style="stroke:#181818;stroke-width:1.0;"/><text fill="#000000" font-family="sans-serif" font-size="13" lengthAdjust="spacing" textLength="130.1333" x="726.37" y="689.3869">Hoofdschakelaar uit</text></g><!--link Step5 to Step0--><g id="link_Step5_Step0"><path d="M831.51,722.84 C842.49,714.62 853.47,704.63 861.37,693.32 C880.32,666.19 883.37,655.28 883.37,622.19 C883.37,238.39 883.37,238.39 883.37,238.39 C883.37,161.8 636.1739,129.659 517.0139,118.509 " fill="none" id="Step5-to-Step0" style="stroke:#181818;stroke-width:1.0;"/><polygon fill="#181818" points="511.04,117.95,519.6282,122.7711,516.0183,118.4158,520.3735,114.8059,511.04,117.95" style="stroke:#181818;stroke-width:1.0;"/><text fill="#000000" font-family="sans-serif" font-size="13" lengthAdjust="spacing" textLength="130.1333" x="884.37" y="434.8569">Hoofdschakelaar uit</text></g><!--SRC=[ZP0_3u8m4CLtFiND9YJoRt5mTZJHpJWSzbG2jaqv7FZqjXH2eoGoNj-lxzwxo-OASRo74vFUHb7BoEG7sC51gRjeRq-igK4q4CY9bO_saQ6IK3Vq0f9GAaDkico0fXOzemP42Jqnamp4R1IL56IgKCb7fQluvrTXDJrij-gmFefywAbBiX3V1l1OCbTUmApb5-KQ1DrSLR-zhuR-We8CwIhpcN8N40PHZ4xUcL5h6kDcgnndQheSa-aU81rKglVabgzocwbYcGBlLlnp-m00]--></g></svg>