<svg xmlns="http://www.w3.org/2000/svg" xmlns:xlink="http://www.w3.org/1999/xlink" contentStyleType="text/css" height="329px" preserveAspectRatio="none" style="width:397px;height:329px;background:#FFFFFF;" version="1.1" viewBox="0 0 397 329" width="397px" zoomAndPan="magnify"><defs/><g><ellipse cx="136.07" cy="16" fill="#222222" rx="10" ry="10" style="stroke:#222222;stroke-width:1.0;"/><g id="Uit"><rect fill="#F1F1F1" height="64.2344" rx="12.5" ry="12.5" style="stroke:#181818;stroke-width:0.5;" width="140.123" x="66.01" y="103"/><line style="stroke:#181818;stroke-width:0.5;" x1="66.01" x2="206.133" y1="129.2969" y2="129.2969"/><text fill="#000000" font-family="sans-serif" font-size="14" lengthAdjust="spacing" textLength="19.626" x="126.2585" y="120.9951">Uit</text><text fill="#000000" font-family="sans-serif" font-size="12" lengthAdjust="spacing" textLength="120.123" x="71.01" y="145.4355">Hoofdschakelaar uit</text><text fill="#000000" font-family="sans-serif" font-size="12" lengthAdjust="spacing" textLength="52.8047" x="74.8245" y="159.4043">Lamp uit</text></g><g id="Aan"><rect fill="#F1F1F1" height="64.2344" rx="12.5" ry="12.5" style="stroke:#181818;stroke-width:0.5;" width="146.791" x="62.68" y="259.24"/><line style="stroke:#181818;stroke-width:0.5;" x1="62.68" x2="209.471" y1="285.5369" y2="285.5369"/><text fill="#000000" font-family="sans-serif" font-size="14" lengthAdjust="spacing" textLength="27.0293" x="122.5609" y="277.2351">Aan</text><text fill="#000000" font-family="sans-serif" font-size="12" lengthAdjust="spacing" textLength="126.791" x="67.68" y="301.6755">Hoofdschakelaar aan</text><text fill="#000000" font-family="sans-serif" font-size="12" lengthAdjust="spacing" textLength="59.4727" x="71.4945" y="315.6443">Lamp aan</text></g><!--link *start* to Uit--><g id="link_*start*_Uit"><path d="M136.07,26.19 C136.07,42.42 136.07,70.87 136.07,96.51 " fill="none" id="*start*-to-Uit" style="stroke:#181818;stroke-width:1.0;"/><polygon fill="#181818" points="136.07,102.51,140.07,93.51,136.07,97.51,132.07,93.51,136.07,102.51" style="stroke:#181818;stroke-width:1.0;"/><text fill="#000000" font-family="sans-serif" font-size="13" lengthAdjust="spacing" textLength="109.0527" x="137.07" y="69.0669">Hoofdschakelaar</text></g><!--link Uit to Aan--><g id="link_Uit_Aan"><path d="M65.74,158.94 C48.49,168.04 32.11,180.47 22.07,197.24 C6,224.1 26.0925,243.7907 56.9725,259.9307 " fill="none" id="Uit-to-Aan" style="stroke:#181818;stroke-width:1.0;"/><polygon fill="#181818" points="62.29,262.71,56.1666,254.9961,57.8588,260.3939,52.4609,262.0861,62.29,262.71" style="stroke:#181818;stroke-width:1.0;"/><text fill="#000000" font-family="sans-serif" font-size="13" lengthAdjust="spacing" textLength="137.3569" x="45.2646" y="210.3069">Hoofdschakelaar aan</text><text fill="#000000" font-family="sans-serif" font-size="13" lengthAdjust="spacing" textLength="177.6138" x="27.2023" y="225.4397">Lamp Hoofdschakelaar aan</text></g><!--link Aan to Uit--><g id="link_Aan_Uit"><path d="M186.08,258.74 C195.39,250.36 203.83,240.47 209.07,229.24 C215.09,216.35 215.09,210.12 209.07,197.24 C203.83,186 199.8495,180.1241 190.5395,171.7441 " fill="none" id="Aan-to-Uit" style="stroke:#181818;stroke-width:1.0;"/><polygon fill="#181818" points="186.08,167.73,190.0933,176.7241,189.7963,171.075,195.4453,170.7781,186.08,167.73" style="stroke:#181818;stroke-width:1.0;"/><text fill="#000000" font-family="sans-serif" font-size="13" lengthAdjust="spacing" textLength="130.1333" x="236.7846" y="210.3069">Hoofdschakelaar uit</text><text fill="#000000" font-family="sans-serif" font-size="13" lengthAdjust="spacing" textLength="170.3901" x="218.7223" y="225.4397">Lamp Hoofdschakelaar uit</text></g><!--SRC=[YzQALT3LjLC8pInHi5BmoCzFIobEpaZCJir9J2pYuYekIIn9nIwfK9fP4fEdu9EOMm1YGfKw9kPXKPgOc0TJ2cHoSO4C1DbAK3KMAIwG9fnEHdOL5Ya0]--></g></svg>